<?xml version="1.0" encoding="UTF-8"?>
<svg id="Layer_1" data-name="Layer 1" xmlns="http://www.w3.org/2000/svg" viewBox="0 0 636 154">
  <g>
    <path d="m214.79,86.9V1.02h38.24c5.19,0,9.66,1.89,13.4,5.67,3.74,3.78,5.61,8.26,5.61,13.46v5.15c0,4.28-1.45,8.38-4.35,12.31-2.9,3.93-7.79,5.9-14.66,5.9h9.5c2.59,0,4.83.94,6.7,2.8,1.87,1.87,2.8,4.14,2.8,6.81v33.78h-19.01v-28.63c0-2.59-.94-4.83-2.81-6.7-1.87-1.87-4.14-2.81-6.81-2.81h-9.5v38.13h-19.12Zm19.12-47.75h9.5c2.67,0,4.94-.93,6.81-2.81,1.87-1.87,2.81-4.1,2.81-6.7v-9.5c0-2.67-.94-4.94-2.81-6.81-1.87-1.87-4.14-2.81-6.81-2.81h-9.5v28.63Z"/>
    <path d="m310.29,1.02h19.12c5.19,0,9.66,1.89,13.4,5.67,3.74,3.78,5.61,8.26,5.61,13.46v47.63c0,5.19-1.87,9.68-5.61,13.45-3.74,3.78-8.21,5.67-13.4,5.67h-19.12c-5.19,0-9.68-1.87-13.45-5.61-3.78-3.74-5.67-8.24-5.67-13.51V20.14c0-5.27,1.89-9.77,5.67-13.51,3.78-3.74,8.26-5.61,13.45-5.61Zm0,19.12v47.63c0,2.6.93,4.85,2.8,6.76,1.87,1.91,4.1,2.86,6.7,2.86s4.94-.95,6.81-2.86c1.87-1.91,2.81-4.16,2.81-6.76V20.14c0-2.67-.94-4.94-2.81-6.81-1.87-1.87-4.14-2.81-6.81-2.81s-4.83.94-6.7,2.81-2.8,4.14-2.8,6.81Z"/>
    <path d="m367.54,86.9V1.02h38.24c5.19,0,9.66,1.89,13.4,5.67,3.74,3.78,5.61,8.26,5.61,13.46v4.69c0,5.65-1.59,10.06-4.75,13.22-3.17,3.17-7.92,5.14-14.26,5.9,6.34,0,11.09,1.93,14.26,5.78,3.17,3.86,4.75,8.3,4.75,13.34v4.69c0,5.19-1.87,9.68-5.61,13.45-3.74,3.78-8.21,5.67-13.4,5.67h-38.24Zm19.12-47.75h9.5c2.67,0,4.94-.93,6.81-2.81,1.87-1.87,2.81-4.1,2.81-6.7v-9.5c0-2.67-.94-4.94-2.81-6.81-1.87-1.87-4.14-2.81-6.81-2.81h-9.5v28.63Zm0,38.24h9.5c2.67,0,4.94-.95,6.81-2.86,1.87-1.91,2.81-4.16,2.81-6.76v-9.5c0-6.34-3.21-9.5-9.62-9.5h-9.5v28.63Z"/>
    <path d="m443.91,86.9V1.02h47.75v9.5h-28.63v28.63h19.12v9.62h-19.12v28.63h28.63v9.5h-47.75Z"/>
    <path d="m510.67,86.9V1.02h38.24c5.19,0,9.66,1.89,13.4,5.67,3.74,3.78,5.61,8.26,5.61,13.46v5.15c0,4.28-1.45,8.38-4.35,12.31-2.9,3.93-7.79,5.9-14.66,5.9h9.5c2.59,0,4.83.94,6.7,2.8,1.87,1.87,2.81,4.14,2.81,6.81v33.78h-19.01v-28.63c0-2.59-.94-4.83-2.81-6.7-1.87-1.87-4.14-2.81-6.81-2.81h-9.5v38.13h-19.12Zm19.12-47.75h9.5c2.67,0,4.94-.93,6.81-2.81,1.87-1.87,2.81-4.1,2.81-6.7v-9.5c0-2.67-.94-4.94-2.81-6.81-1.87-1.87-4.14-2.81-6.81-2.81h-9.5v28.63Z"/>
    <path d="m596.66,86.9V10.52h-19.12V1.02h57.25v9.5h-19.12v76.37h-19.01Z"/>
  </g>
  <g>
    <path d="m228.58,129.98h13.79v13.79c0,3.09-.97,5.4-2.92,6.92-1.95,1.53-4.03,2.29-6.23,2.29h-9.21c-2.5,0-4.66-.9-6.48-2.7-1.82-1.8-2.73-3.97-2.73-6.51v-22.95c0-2.5.89-4.66,2.68-6.48,1.78-1.82,3.96-2.73,6.54-2.73h9.21c5.77,0,8.83,3.07,9.16,9.21h-4.58c-.37-3.09-1.89-4.63-4.58-4.63h-4.63c-1.25,0-2.33.45-3.23,1.35-.9.9-1.35,2-1.35,3.28v22.95c0,1.29.45,2.38,1.35,3.28.9.9,1.98,1.35,3.23,1.35,2.94-.15,4.49-1.69,4.63-4.63v-9.16h-4.63v-4.63Z" fill="#2468ad"/>
    <path d="m251.58,152.98v-41.37h9.21v36.79h13.79v4.58h-23Z" fill="#2468ad"/>
    <path d="m283.74,152.98v-32.16c0-2.54.91-4.71,2.73-6.51,1.82-1.8,3.98-2.7,6.48-2.7h9.21c2.5,0,4.65.91,6.45,2.73,1.8,1.82,2.7,3.98,2.7,6.48v32.16h-9.16v-18.37h-9.21v18.37h-9.21Zm9.21-23h9.21v-9.16c0-1.29-.45-2.38-1.35-3.28-.9-.9-2-1.35-3.28-1.35s-2.33.45-3.23,1.35c-.9.9-1.35,2-1.35,3.28v9.16Z" fill="#2468ad"/>
    <path d="m343.54,120.82h-4.58c-.41-3.09-1.86-4.63-4.36-4.63-1.62,0-2.83.39-3.64,1.16-.81.77-1.21,1.93-1.21,3.48,0,1.14.44,2.23,1.32,3.25l9.76,10.92c1.8,2.02,2.7,4.19,2.7,6.51v2.26c0,2.5-.9,4.66-2.7,6.48-1.8,1.82-3.97,2.73-6.51,2.73h-4.58c-3.05,0-5.35-.76-6.89-2.29-1.54-1.53-2.32-3.83-2.32-6.92h4.63v.77c0,1.25.48,2.21,1.43,2.87.96.66,2,.99,3.14.99,1.62,0,2.79-.39,3.5-1.19.72-.79,1.08-1.94,1.08-3.45,0-1.18-.44-2.26-1.32-3.25l-9.76-10.92c-1.8-1.99-2.7-4.16-2.7-6.51v-2.26c0-2.5.9-4.66,2.7-6.48,1.8-1.82,3.97-2.73,6.51-2.73h4.58c5.77,0,8.84,3.07,9.21,9.21Z" fill="#2468ad"/>
    <path d="m375.7,120.82h-4.58c-.41-3.09-1.86-4.63-4.36-4.63-1.62,0-2.83.39-3.64,1.16-.81.77-1.21,1.93-1.21,3.48,0,1.14.44,2.23,1.32,3.25l9.76,10.92c1.8,2.02,2.7,4.19,2.7,6.51v2.26c0,2.5-.9,4.66-2.7,6.48-1.8,1.82-3.97,2.73-6.51,2.73h-4.58c-3.05,0-5.35-.76-6.9-2.29-1.54-1.53-2.32-3.83-2.32-6.92h4.63v.77c0,1.25.48,2.21,1.43,2.87.96.66,2,.99,3.14.99,1.62,0,2.79-.39,3.5-1.19.72-.79,1.08-1.94,1.08-3.45,0-1.18-.44-2.26-1.32-3.25l-9.76-10.92c-1.8-1.99-2.7-4.16-2.7-6.51v-2.26c0-2.5.9-4.66,2.7-6.48,1.8-1.82,3.97-2.73,6.51-2.73h4.58c5.77,0,8.84,3.07,9.21,9.21Z" fill="#2468ad"/>
  </g>
  <g opacity=".75">
    <polygon points="135.36 152.98 1.21 121.68 1.21 24.41 164.71 24.41 135.36 152.98" fill="#2468ad"/>
  </g>
  <path d="m164.73,137.3L24.45,104.56V1.02h171.39l-31.11,136.28ZM31.45,99.01l128.03,29.88,27.59-120.87H31.45v90.99Z"/>
</svg>